<svg width="51" height="50" viewBox="0 0 51 50" fill="none" xmlns="http://www.w3.org/2000/svg">
<g id="Social" clip-path="url(#clip0_2021_10188)">
<path id="Vector" d="M3.65909 43.7601H11.6136V24.4419L0.25 15.9192V40.351C0.25 42.2374 1.77841 43.7601 3.65909 43.7601Z" fill="#4285F4"/>
<path id="Vector_2" d="M38.8867 43.7601H46.8413C48.7276 43.7601 50.2504 42.2317 50.2504 40.351V15.9192L38.8867 24.4419" fill="#34A853"/>
<path id="Vector_3" d="M38.8867 9.66946V24.4422L50.2504 15.9195V11.374C50.2504 7.1581 45.4379 4.75469 42.0685 7.2831" fill="#FBBC04"/>
<path id="Vector_4" d="M11.6133 24.4419V9.66922L25.2496 19.8965L38.886 9.66922V24.4419L25.2496 34.6692" fill="#EA4335"/>
<path id="Vector_5" d="M0.25 11.374V15.9195L11.6136 24.4422V9.66946L8.43182 7.2831C5.05682 4.75469 0.25 7.1581 0.25 11.374Z" fill="#C5221F"/>
</g>
<defs>
<clipPath id="clip0_2021_10188">
<rect width="50" height="50" fill="white" transform="translate(0.25 0.000701904)"/>
</clipPath>
</defs>
</svg>
