<svg width="25" height="24" viewBox="0 0 25 24" fill="none" xmlns="http://www.w3.org/2000/svg">
<g id="party">
<path id="Vector" d="M9.55713 9.28125L5.53929 17.7937C5.11256 18.628 5.9654 19.5379 6.82659 19.1671L15.2681 16.1875" stroke="black" stroke-width="1.5" stroke-linecap="round" stroke-linejoin="round"/>
<path id="Vector_2" d="M13.9866 10.9774C15.6264 12.8695 16.3649 15.085 15.6361 15.9259C14.9073 16.7669 12.9872 15.9147 11.3474 14.0226C9.70756 12.1305 8.96904 9.91499 9.69785 9.07406C10.4267 8.23313 12.3468 9.08527 13.9866 10.9774Z" stroke="black" stroke-width="1.5" stroke-linecap="round" stroke-linejoin="round"/>
<path id="Vector_3" d="M10.1672 17.6367C9.57038 17.2553 8.94063 16.707 8.34755 16.0227C7.957 15.5721 7.61757 15.1031 7.33691 14.6387" stroke="black" stroke-width="1.5" stroke-linecap="round" stroke-linejoin="round"/>
<path id="Vector_4" d="M12.167 5C12.167 5.27614 11.9431 5.5 11.667 5.5C11.3908 5.5 11.167 5.27614 11.167 5C11.167 4.72386 11.3908 4.5 11.667 4.5C11.9431 4.5 12.167 4.72386 12.167 5Z" stroke="black" stroke-linecap="round" stroke-linejoin="round"/>
<path id="Vector_5" d="M16.417 9.25L16.5457 9.12132C17.7172 7.94975 17.7172 6.05025 16.5457 4.87868L16.417 4.75" stroke="black" stroke-width="1.5" stroke-linecap="round" stroke-linejoin="round"/>
<path id="Vector_6" d="M17.667 13.0001L17.9599 12.7072C18.3504 12.3167 18.9836 12.3167 19.3741 12.7072L19.667 13.0001" stroke="black" stroke-width="1.5" stroke-linecap="round" stroke-linejoin="round"/>
</g>
</svg>
